<?xml version="1.0" standalone="no"?>
<!DOCTYPE svg PUBLIC "-//W3C//DTD SVG 20010904//EN"
 "http://www.w3.org/TR/2001/REC-SVG-20010904/DTD/svg10.dtd">
<svg version="1.0" xmlns="http://www.w3.org/2000/svg"
 width="512.000000pt" height="512.000000pt" viewBox="0 0 512.000000 512.000000"
 preserveAspectRatio="xMidYMid meet">
<metadata>
Created by potrace 1.16, written by Peter Selinger 2001-2019
</metadata>
<g transform="translate(0.000000,512.000000) scale(0.100000,-0.100000)"
fill="#404550" stroke="none">
<path d="M3225 4763 c-154 -16 -175 -26 -175 -77 0 -24 13 -44 62 -93 l63 -63
-95 -95 -94 -95 -1136 -2 c-1269 -3 -1168 3 -1227 -75 -26 -34 -28 -44 -31
-148 l-4 -112 -73 -6 c-127 -9 -204 -57 -254 -159 l-31 -61 0 -1321 0 -1321
24 -50 c29 -64 77 -112 141 -141 l50 -24 763 0 762 0 0 -225 0 -225 -162 0
c-191 0 -211 -6 -216 -63 -6 -72 -81 -67 968 -67 905 0 948 1 963 18 23 25 21
65 -4 88 -19 17 -41 19 -190 22 l-169 3 0 225 0 224 758 0 757 0 50 24 c64 29
112 77 141 141 l24 50 0 1321 0 1321 -31 61 c-51 102 -127 150 -255 159 l-74
6 0 98 c0 54 -5 110 -11 126 -15 42 -68 92 -109 103 -20 6 -218 10 -477 10
-348 0 -443 3 -443 13 0 6 7 75 15 152 18 172 19 247 3 263 -15 15 -103 14
-283 -5z m-535 -718 l-165 -165 -902 0 -903 0 0 147 c0 122 3 149 17 165 15
17 62 18 1067 18 l1051 0 -165 -165z m1694 149 c13 -13 16 -42 16 -165 l0
-149 -847 0 -848 1 170 164 170 164 662 1 c588 0 663 -2 677 -16z m-3794
-1292 l0 -968 23 -44 c12 -25 37 -55 56 -67 l34 -23 1857 0 1857 0 34 23 c19
12 44 42 57 67 l22 44 0 968 0 968 48 0 c57 0 127 -33 156 -73 21 -28 21 -36
24 -1093 l2 -1064 -2200 0 -2200 0 2 1064 c3 1057 3 1065 24 1093 29 40 99 73
156 73 l48 0 0 -968z m1725 778 l-69 -70 -192 0 -191 0 -302 -267 c-290 -257
-301 -268 -301 -303 0 -45 15 -60 60 -60 32 1 62 25 315 250 l280 249 194 1
194 0 137 135 136 135 912 0 912 0 0 -899 0 -900 -22 -15 c-20 -14 -209 -16
-1818 -16 -1609 0 -1798 2 -1818 16 l-22 15 0 900 0 899 832 0 832 0 -69 -70z
m2445 -2336 c0 -202 -7 -229 -73 -272 l-41 -27 -2086 0 -2086 0 -41 27 c-66
43 -73 70 -73 272 l0 176 2200 0 2200 0 0 -176z m-1730 -654 l0 -230 -465 0
-465 0 0 230 0 230 465 0 465 0 0 -230z"/>
<path d="M2942 3567 c-12 -7 -30 -24 -40 -37 -16 -23 -17 -75 -20 -647 l-3
-623 -54 0 -55 0 0 441 c0 490 0 493 -65 523 -46 22 -244 22 -290 0 -65 -30
-65 -33 -65 -523 l0 -441 -55 0 -55 0 -1 333 c0 367 -3 387 -58 424 -30 21
-46 23 -148 23 -76 0 -125 -5 -148 -14 -64 -27 -65 -36 -65 -419 l0 -345 -66
-4 c-50 -3 -70 -9 -80 -23 -20 -26 -17 -69 4 -88 17 -16 93 -17 884 -17 825 0
866 1 881 18 21 23 22 62 3 87 -10 14 -30 20 -80 23 l-66 4 -2 630 -3 630 -33
29 c-32 29 -32 29 -165 29 -86 -1 -140 -5 -155 -13z m228 -712 l0 -595 -80 0
-80 0 0 595 0 595 80 0 80 0 0 -595z m-530 -170 l0 -425 -80 0 -80 0 0 425 0
425 80 0 80 0 0 -425z m-530 -100 l0 -325 -80 0 -80 0 0 325 0 325 80 0 80 0
0 -325z"/>
<path d="M2325 1315 c-29 -28 -31 -51 -9 -83 15 -22 19 -22 244 -22 225 0 229
0 244 22 22 32 20 55 -9 83 -24 25 -24 25 -235 25 -211 0 -211 0 -235 -25z"/>
</g>
</svg>
