<?xml version="1.0" standalone="no"?>
<!DOCTYPE svg PUBLIC "-//W3C//DTD SVG 20010904//EN"
 "http://www.w3.org/TR/2001/REC-SVG-20010904/DTD/svg10.dtd">
<svg version="1.0" xmlns="http://www.w3.org/2000/svg"
 width="512.000000pt" height="512.000000pt" viewBox="0 0 512.000000 512.000000"
 preserveAspectRatio="xMidYMid meet">
<metadata>
Created by potrace 1.16, written by Peter Selinger 2001-2019
</metadata>
<g transform="translate(0.000000,512.000000) scale(0.100000,-0.100000)"
fill="#404550" stroke="none">
<path d="M532 4934 c-22 -15 -22 -17 -22 -285 l0 -269 -149 0 c-123 0 -152 -3
-165 -16 -14 -14 -16 -179 -16 -1669 l0 -1654 22 -15 c20 -14 127 -16 956 -16
743 0 933 -3 929 -13 -2 -6 -21 -70 -41 -142 -20 -71 -48 -167 -62 -212 l-25
-83 -107 0 c-158 0 -152 8 -152 -194 0 -113 4 -166 12 -174 9 -9 213 -12 854
-12 753 0 844 2 858 16 24 24 23 325 0 345 -11 9 -54 16 -118 19 l-100 5 -83
220 c-46 121 -83 221 -83 223 0 1 421 2 935 2 922 0 935 0 955 20 20 20 20 33
20 1668 0 1585 -1 1650 -18 1665 -16 14 -44 17 -180 17 l-162 0 0 269 c0 268
0 270 -22 285 -20 14 -228 16 -2018 16 -1790 0 -1998 -2 -2018 -16z m1968
-1469 l0 -1365 -935 0 -935 0 0 1365 0 1365 935 0 935 0 0 -1365z m1970 0 l0
-1365 -925 0 -925 0 0 1365 0 1365 925 0 925 0 0 -1365z m-3960 -329 c0 -1009
2 -1126 16 -1140 14 -14 211 -16 2020 -16 1363 0 2012 3 2025 10 19 10 19 34
19 1140 l0 1130 120 0 120 0 0 -1250 0 -1250 -2265 0 -2265 0 0 1250 0 1250
105 0 105 0 0 -1124z m4320 -1751 l0 -255 -2265 0 -2265 0 0 255 0 255 2265 0
2265 0 0 -255z m-1842 -593 c45 -121 82 -222 82 -225 0 -4 -221 -7 -491 -7
-462 0 -490 1 -485 18 3 9 30 105 61 212 31 107 58 201 60 208 3 9 82 12 348
12 l344 0 81 -218z m332 -422 l0 -70 -750 0 -750 0 0 70 0 70 750 0 750 0 0
-70z"/>
<path d="M1037 4472 c-114 -114 -137 -142 -137 -167 0 -24 23 -52 138 -167
119 -119 142 -138 169 -138 34 0 63 29 63 64 0 11 -46 66 -110 130 l-110 112
105 104 c96 96 105 108 105 142 0 27 -6 40 -19 48 -46 24 -63 13 -204 -128z"/>
<path d="M1572 4593 c-29 -54 -212 -527 -212 -547 0 -51 69 -76 102 -38 9 9
62 135 118 280 88 223 102 267 94 290 -8 23 -16 27 -51 30 -32 2 -44 -1 -51
-15z"/>
<path d="M1815 4596 c-11 -8 -18 -26 -18 -45 0 -28 15 -48 106 -139 l107 -107
-105 -105 c-58 -58 -108 -115 -111 -128 -10 -35 20 -72 58 -72 28 0 51 18 170
138 116 116 138 143 138 168 0 25 -22 51 -138 167 -144 142 -164 154 -207 123z"/>
<path d="M1473 3758 c-18 -23 -463 -976 -463 -992 0 -27 13 -48 35 -56 51 -20
64 -5 146 167 l79 163 267 0 268 0 84 -161 c89 -170 106 -188 156 -169 37 14
42 53 15 109 -54 112 -484 918 -498 934 -18 20 -75 23 -89 5z m201 -470 l67
-128 -205 0 c-113 0 -206 2 -206 4 0 6 143 313 172 370 l20 39 42 -79 c23 -43
72 -136 110 -206z"/>
<path d="M802 2418 c-7 -7 -12 -27 -12 -44 0 -67 -37 -64 787 -64 730 0 743 0
763 20 24 24 26 63 4 84 -14 14 -98 16 -773 16 -575 0 -760 -3 -769 -12z"/>
<path d="M3048 4473 c-116 -116 -138 -142 -138 -167 0 -25 22 -52 138 -168
119 -120 142 -138 170 -138 38 0 68 37 58 72 -3 13 -53 70 -111 128 l-105 105
107 107 c91 91 106 111 106 139 0 19 -7 37 -18 45 -43 31 -63 19 -207 -123z"/>
<path d="M3581 4592 c-27 -52 -211 -526 -211 -546 0 -48 70 -75 102 -38 19 21
218 520 218 545 0 10 -5 27 -10 38 -14 26 -85 27 -99 1z"/>
<path d="M3828 4599 c-12 -7 -18 -22 -18 -47 0 -34 9 -47 105 -142 l105 -104
-110 -112 c-64 -64 -110 -119 -110 -130 0 -35 29 -64 63 -64 27 0 50 19 169
138 115 115 138 143 138 168 0 24 -22 52 -138 167 -141 140 -160 152 -204 126z"/>
<path d="M3255 3746 c-14 -20 -15 -82 -13 -490 3 -450 4 -468 22 -482 30 -21
392 -20 465 2 66 19 136 81 167 149 47 99 24 247 -49 313 l-25 24 38 50 c49
65 64 120 58 207 -8 107 -64 187 -163 232 -35 16 -69 19 -262 19 l-223 0 -15
-24z m466 -119 c58 -39 81 -84 77 -145 -5 -56 -25 -91 -72 -126 -25 -19 -44
-21 -192 -24 l-164 -3 0 160 0 161 159 0 c148 0 160 -1 192 -23z m2 -446 c108
-67 98 -230 -17 -282 -34 -15 -66 -19 -188 -19 l-148 0 0 166 0 166 158 -4
c144 -3 160 -5 195 -27z"/>
<path d="M2757 2412 c-23 -25 -21 -58 3 -82 20 -20 33 -20 763 -20 824 0 787
-3 787 64 0 17 -5 37 -12 44 -9 9 -193 12 -768 12 -721 0 -758 -1 -773 -18z"/>
<path d="M416 1538 c-22 -31 -23 -284 -2 -314 14 -18 32 -19 420 -22 396 -3
406 -2 426 18 18 18 20 33 20 158 0 108 -3 142 -16 160 l-15 22 -409 0 -409 0
-15 -22z m744 -158 l0 -60 -320 0 -320 0 0 60 0 60 320 0 320 0 0 -60z"/>
<path d="M3450 1508 c-49 -34 -72 -71 -77 -125 -10 -99 62 -177 162 -177 101
0 169 72 162 172 -6 91 -72 152 -162 152 -38 0 -61 -6 -85 -22z"/>
<path d="M3902 1513 c-51 -25 -76 -68 -80 -138 -5 -75 21 -119 91 -154 69 -34
127 -24 183 33 57 56 67 114 33 183 -32 64 -77 93 -143 93 -28 0 -66 -8 -84
-17z"/>
<path d="M4342 1510 c-94 -57 -105 -189 -23 -263 55 -50 113 -58 178 -26 65
32 93 77 93 147 0 64 -24 111 -74 141 -45 28 -129 28 -174 1z"/>
</g>
</svg>
