<?xml version="1.0" standalone="no"?>
<!DOCTYPE svg PUBLIC "-//W3C//DTD SVG 20010904//EN"
 "http://www.w3.org/TR/2001/REC-SVG-20010904/DTD/svg10.dtd">
<svg version="1.0" xmlns="http://www.w3.org/2000/svg"
 width="512.000000pt" height="512.000000pt" viewBox="0 0 512.000000 512.000000"
 preserveAspectRatio="xMidYMid meet">
<metadata>
Created by potrace 1.16, written by Peter Selinger 2001-2019
</metadata>
<g transform="translate(0.000000,512.000000) scale(0.100000,-0.100000)"
fill="#404550" stroke="none">
<path d="M110 4374 c-19 -8 -45 -25 -58 -37 -53 -49 -52 -40 -52 -567 0 -477
1 -491 20 -510 12 -12 33 -20 55 -20 22 0 43 8 55 20 18 18 20 33 20 195 l0
175 2410 0 2410 0 0 -684 0 -685 26 -20 c34 -27 64 -27 98 0 l26 20 0 1000 c0
1078 3 1025 -52 1076 -58 54 -35 53 -862 53 -539 0 -772 -3 -789 -11 -49 -22
-61 -86 -22 -124 l24 -25 765 0 c746 0 766 0 776 -19 6 -12 10 -101 10 -220
l0 -201 -2410 0 -2410 0 0 201 c0 119 4 208 10 220 11 19 38 19 1494 19 l1483
0 21 23 c27 29 28 77 3 108 l-19 24 -1499 2 c-1321 2 -1502 1 -1533 -13z"/>
<path d="M443 4080 c-45 -19 -56 -80 -22 -124 44 -56 139 -20 139 54 0 55 -63
93 -117 70z"/>
<path d="M743 4080 c-45 -19 -56 -80 -22 -124 44 -56 139 -20 139 54 0 55 -63
93 -117 70z"/>
<path d="M1043 4080 c-45 -19 -56 -80 -22 -124 44 -56 139 -20 139 54 0 55
-63 93 -117 70z"/>
<path d="M2370 3460 c-180 -38 -342 -130 -471 -268 -164 -175 -239 -370 -239
-620 0 -126 11 -176 40 -192 27 -14 73 -12 96 4 17 13 20 32 25 178 5 139 10
175 32 243 37 114 90 197 182 291 112 114 228 177 377 208 167 34 315 14 478
-66 90 -44 116 -63 190 -137 149 -151 209 -288 218 -497 4 -100 1 -134 -17
-204 -54 -216 -199 -395 -396 -490 -119 -57 -191 -74 -325 -74 -237 0 -426 91
-585 284 -62 75 -69 80 -105 80 -45 0 -80 -35 -80 -80 0 -52 140 -211 256
-291 68 -47 201 -107 289 -130 65 -18 108 -22 225 -22 169 0 252 18 389 84
233 111 395 298 476 549 37 114 46 322 21 451 -19 90 -64 206 -118 297 -42 71
-194 226 -273 277 -194 127 -455 174 -685 125z"/>
<path d="M50 3043 c-8 -3 -23 -12 -32 -21 -17 -14 -18 -79 -18 -1089 0 -1158
-3 -1099 52 -1150 60 -57 -116 -53 2508 -53 2624 0 2448 -4 2508 53 53 49 52
34 52 642 0 552 0 565 -20 585 -27 27 -83 27 -110 0 -19 -19 -20 -33 -20 -551
0 -346 -4 -537 -10 -550 -11 -19 -48 -19 -2400 -19 -2352 0 -2389 0 -2400 19
-7 13 -10 362 -10 1059 0 977 -1 1040 -17 1055 -21 18 -62 28 -83 20z"/>
<path d="M2851 2978 c-49 -11 -95 -53 -293 -268 l-106 -115 -65 61 c-96 90
-127 112 -179 123 -96 22 -195 -24 -238 -110 -27 -51 -27 -146 -1 -197 23 -45
354 -351 406 -376 58 -28 161 -19 209 18 52 39 497 520 518 559 24 46 24 147
-2 196 -20 40 -69 87 -104 101 -40 15 -101 18 -145 8z m87 -164 c49 -34 36
-53 -214 -321 -179 -193 -240 -253 -258 -253 -17 0 -74 46 -190 152 -139 127
-166 156 -166 180 0 18 8 33 25 44 32 21 35 19 175 -110 106 -98 132 -113 173
-102 12 3 105 95 207 206 166 181 203 219 220 220 3 0 16 -7 28 -16z"/>
<path d="M1680 1510 c-31 -31 -27 -93 6 -119 27 -21 32 -21 874 -21 842 0 847
0 874 21 33 26 37 88 6 119 -20 20 -33 20 -880 20 -847 0 -860 0 -880 -20z"/>
<path d="M1155 1175 c-16 -15 -25 -36 -25 -55 0 -19 9 -40 25 -55 l24 -25 395
0 c272 0 403 4 420 11 31 14 49 57 40 93 -14 56 -13 56 -452 56 l-403 0 -24
-25z"/>
<path d="M2202 1177 c-32 -34 -30 -89 4 -116 27 -21 32 -21 881 -21 l854 0 24
25 c33 32 33 78 0 110 l-24 25 -859 0 -859 0 -21 -23z"/>
</g>
</svg>
