<?xml version="1.0" standalone="no"?>
<!DOCTYPE svg PUBLIC "-//W3C//DTD SVG 20010904//EN"
 "http://www.w3.org/TR/2001/REC-SVG-20010904/DTD/svg10.dtd">
<svg version="1.0" xmlns="http://www.w3.org/2000/svg"
 width="512.000000pt" height="512.000000pt" viewBox="0 0 512.000000 512.000000"
 preserveAspectRatio="xMidYMid meet">
<metadata>
Created by potrace 1.16, written by Peter Selinger 2001-2019
</metadata>
<g transform="translate(0.000000,512.000000) scale(0.100000,-0.100000)"
fill="#404550" stroke="none">
<path d="M935 4941 c-22 -10 -54 -34 -72 -52 -67 -71 -63 30 -63 -1439 0
-1317 0 -1330 20 -1350 22 -22 78 -27 110 -10 11 6 24 27 30 48 6 24 10 374
10 1030 l0 992 1590 0 1590 0 2 -1020 3 -1019 23 -23 c28 -29 91 -31 121 -4
l21 19 0 1336 c0 1280 -1 1338 -19 1376 -10 22 -34 54 -52 72 -72 68 57 63
-1691 63 -1521 0 -1585 -1 -1623 -19z m3196 -170 c17 -21 19 -41 19 -237 l0
-214 -1590 0 -1590 0 0 218 c0 196 2 221 18 234 9 9 26 18 37 21 11 3 710 4
1553 3 l1534 -1 19 -24z"/>
<path d="M1140 4620 c-13 -13 -20 -33 -20 -60 0 -53 27 -80 80 -80 53 0 80 27
80 80 0 53 -27 80 -80 80 -27 0 -47 -7 -60 -20z"/>
<path d="M1460 4620 c-13 -13 -20 -33 -20 -60 0 -53 27 -80 80 -80 53 0 80 27
80 80 0 27 -7 47 -20 60 -13 13 -33 20 -60 20 -27 0 -47 -7 -60 -20z"/>
<path d="M1780 4620 c-13 -13 -20 -33 -20 -60 0 -53 27 -80 80 -80 53 0 80 27
80 80 0 27 -7 47 -20 60 -13 13 -33 20 -60 20 -27 0 -47 -7 -60 -20z"/>
<path d="M2899 4621 c-30 -24 -33 -89 -5 -120 19 -21 25 -21 543 -21 510 0
524 1 543 20 13 13 20 33 20 60 0 27 -7 47 -20 60 -19 19 -33 20 -539 20 -494
0 -520 -1 -542 -19z"/>
<path d="M295 4461 c-22 -10 -54 -34 -72 -52 -68 -72 -63 48 -63 -1609 0
-1657 -5 -1537 63 -1609 18 -18 50 -42 72 -52 39 -18 119 -19 2265 -19 2146 0
2226 1 2265 19 22 10 54 34 72 52 68 72 63 -48 63 1611 0 1443 -1 1505 -19
1543 -10 22 -34 54 -52 72 -57 54 -93 63 -242 63 -123 0 -135 -2 -153 -21 -24
-27 -25 -91 -1 -117 16 -17 34 -20 137 -23 99 -3 121 -7 139 -23 l21 -19 0
-1179 0 -1178 -2235 0 -2235 0 2 1175 3 1174 23 23 c20 21 34 23 142 27 103 3
121 6 137 23 24 26 23 90 -1 117 -18 19 -30 21 -155 21 -111 0 -143 -4 -176
-19z m4495 -2916 c0 -202 -1 -216 -20 -235 -20 -20 -33 -20 -2206 -20 -1406 0
-2192 3 -2204 10 -33 17 -40 66 -40 266 l0 194 2235 0 2235 0 0 -215z"/>
<path d="M2340 1578 c-27 -29 -27 -91 0 -118 19 -19 33 -20 225 -20 197 0 205
1 225 22 28 31 27 88 -3 116 -22 21 -32 22 -225 22 -194 0 -202 -1 -222 -22z"/>
<path d="M2758 3835 c-33 -18 -16 30 -298 -820 -223 -671 -233 -702 -219 -730
27 -56 123 -64 151 -11 6 11 121 349 254 749 211 633 241 732 233 759 -5 18
-14 37 -21 44 -22 20 -71 25 -100 9z"/>
<path d="M1891 3519 c-21 -8 -463 -371 -512 -420 -22 -22 -26 -87 -6 -111 6
-9 127 -111 267 -227 280 -232 287 -236 341 -182 34 34 38 78 12 109 -10 12
-106 94 -213 183 -107 89 -195 165 -195 169 0 4 90 82 200 174 116 97 205 180
212 196 18 42 -1 88 -43 106 -18 8 -35 14 -36 13 -2 0 -14 -5 -27 -10z"/>
<path d="M3164 3516 c-40 -18 -59 -65 -41 -106 7 -16 96 -99 212 -196 110 -92
200 -170 200 -174 0 -4 -88 -80 -195 -169 -107 -89 -203 -171 -212 -183 -27
-31 -23 -75 11 -109 29 -29 53 -35 87 -22 20 8 489 394 517 425 24 28 23 92
-3 118 -40 40 -501 420 -509 420 -5 0 -15 2 -23 5 -7 2 -27 -2 -44 -9z"/>
<path d="M2054 948 c-11 -13 -36 -50 -55 -82 -19 -32 -69 -97 -113 -142 l-78
-84 -97 0 c-110 0 -156 -16 -208 -71 -53 -57 -63 -93 -63 -239 0 -117 2 -132
20 -150 20 -20 33 -20 1100 -20 1053 0 1080 0 1099 19 26 26 35 95 27 198 -7
97 -24 145 -69 192 -52 55 -98 71 -208 71 l-97 0 -78 84 c-44 45 -94 110 -113
142 -19 32 -44 69 -55 82 -25 28 -74 29 -110 1 -52 -41 -29 -117 75 -256 l40
-53 -511 0 -511 0 40 53 c104 139 127 215 75 256 -36 28 -85 27 -110 -1z
m1436 -494 c14 -14 23 -39 27 -77 l6 -57 -957 0 -956 0 0 53 c0 59 18 93 53
100 12 2 424 4 914 3 890 -1 893 -1 913 -22z"/>
</g>
</svg>
