<?xml version="1.0" standalone="no"?>
<!DOCTYPE svg PUBLIC "-//W3C//DTD SVG 20010904//EN"
 "http://www.w3.org/TR/2001/REC-SVG-20010904/DTD/svg10.dtd">
<svg version="1.0" xmlns="http://www.w3.org/2000/svg"
 width="512.000000pt" height="512.000000pt" viewBox="0 0 512.000000 512.000000"
 preserveAspectRatio="xMidYMid meet">
<metadata>
Created by potrace 1.16, written by Peter Selinger 2001-2019
</metadata>
<g transform="translate(0.000000,512.000000) scale(0.100000,-0.100000)"
fill="#404550" stroke="none">
<path d="M433 4625 c-100 -31 -190 -112 -241 -215 l-27 -55 0 -1795 0 -1795
29 -60 c38 -77 114 -153 191 -191 l60 -29 2115 0 2115 0 60 29 c33 17 83 53
111 80 27 28 63 78 80 111 l29 60 0 1795 0 1795 -29 60 c-38 77 -114 153 -191
191 l-60 29 -1242 3 -1241 2 -21 -26 c-27 -34 -27 -74 0 -107 l20 -27 1207 -2
c1207 -3 1207 -3 1252 -24 54 -26 103 -75 127 -129 16 -36 18 -80 21 -422 l3
-383 -2241 0 -2241 0 3 383 c3 365 4 384 24 427 26 54 75 103 129 127 36 16
86 18 528 23 469 5 489 6 503 24 21 29 18 92 -6 116 -19 19 -33 20 -522 19
-388 0 -513 -3 -545 -14z m4365 -2527 c-3 -1257 -3 -1263 -24 -1308 -25 -54
-87 -113 -140 -131 -58 -21 -4090 -21 -4148 0 -53 18 -115 77 -140 131 -21 45
-21 51 -24 1308 l-2 1262 2240 0 2240 0 -2 -1262z"/>
<path d="M2330 3100 c-155 -33 -268 -80 -398 -167 -253 -168 -434 -451 -482
-755 -18 -111 -8 -351 18 -450 116 -432 436 -739 867 -829 123 -26 327 -26
450 0 431 90 746 391 868 829 18 67 21 103 21 272 0 170 -3 205 -22 273 -121
437 -437 738 -867 828 -121 25 -336 25 -455 -1z m290 -170 c42 -30 104 -129
140 -223 32 -81 80 -255 80 -289 0 -17 -20 -18 -280 -18 -239 0 -280 2 -280
15 0 28 39 182 65 255 38 106 82 185 132 236 35 36 49 44 79 44 20 0 48 -9 64
-20z m-401 -121 c-47 -108 -86 -236 -102 -336 l-12 -73 -202 0 c-112 0 -203 2
-203 5 0 12 34 72 73 130 58 85 157 186 243 245 70 49 206 119 230 120 7 0 -6
-40 -27 -91z m736 57 c152 -70 301 -196 392 -331 39 -58 73 -118 73 -130 0 -3
-91 -5 -203 -5 l-202 0 -12 73 c-16 100 -55 228 -102 336 -21 50 -34 91 -29
91 5 0 43 -15 83 -34z m-870 -866 l0 -240 -225 2 -225 3 -12 55 c-21 101 -12
371 14 413 2 4 104 7 226 7 l222 0 0 -240z m779 224 c8 -20 8 -428 0 -448 -5
-14 -42 -16 -304 -16 -262 0 -299 2 -304 16 -8 20 -8 428 0 448 5 14 42 16
304 16 262 0 299 -2 304 -16z m633 -44 c6 -30 11 -111 11 -180 0 -69 -5 -150
-11 -180 l-12 -55 -225 -3 -225 -2 0 240 0 240 225 -2 225 -3 12 -55z m-1380
-652 c16 -101 55 -229 102 -337 21 -50 34 -91 29 -91 -20 0 -159 70 -219 111
-88 59 -189 158 -247 243 -46 67 -82 128 -82 141 0 3 91 5 203 5 l202 0 12
-72z m723 55 c0 -35 -48 -209 -80 -290 -36 -94 -98 -193 -140 -223 -36 -26
-84 -26 -120 0 -42 30 -104 129 -140 223 -32 81 -80 255 -80 290 0 16 20 17
280 17 260 0 280 -1 280 -17z m580 12 c0 -12 -34 -72 -73 -130 -58 -85 -157
-186 -244 -245 -67 -47 -208 -120 -231 -120 -5 0 8 41 29 91 47 108 86 236
102 337 l12 72 202 0 c112 0 203 -2 203 -5z"/>
<path d="M1692 4617 c-30 -32 -29 -87 1 -115 21 -20 34 -22 145 -22 143 0 162
10 162 80 0 71 -19 80 -163 80 -116 0 -125 -1 -145 -23z"/>
<path d="M752 4299 c-116 -45 -192 -163 -192 -299 0 -130 64 -236 175 -290
l50 -25 962 -3 c956 -2 962 -2 1018 19 260 97 260 501 0 598 -55 21 -66 21
-1008 20 -932 0 -953 0 -1005 -20z m1958 -165 c107 -63 107 -205 0 -268 -35
-21 -45 -21 -950 -21 -905 0 -915 0 -950 21 -126 73 -99 250 43 284 17 5 435
7 927 7 883 -2 895 -2 930 -23z"/>
<path d="M3334 4309 c-82 -24 -181 -124 -204 -207 -17 -62 -12 -166 11 -227
28 -75 99 -146 176 -175 79 -30 196 -26 267 9 110 54 169 147 174 276 5 106
-21 177 -88 245 -64 63 -135 90 -233 89 -40 0 -86 -5 -103 -10z m184 -179
c130 -79 74 -280 -78 -280 -85 0 -150 65 -150 150 0 85 65 150 150 150 27 0
58 -8 78 -20z"/>
<path d="M4134 4309 c-82 -24 -181 -124 -204 -207 -17 -62 -12 -166 11 -227
28 -75 99 -146 176 -175 79 -30 196 -26 267 9 110 54 169 147 174 276 5 106
-21 177 -88 245 -64 63 -135 90 -233 89 -40 0 -86 -5 -103 -10z m184 -179
c130 -79 74 -280 -78 -280 -85 0 -150 65 -150 150 0 85 65 150 150 150 27 0
58 -8 78 -20z"/>
</g>
</svg>
